<?xml version="1.0" encoding="UTF-8"?>
<svg width="700pt" height="700pt" version="1.1" viewBox="0 0 700 700" xmlns="http://www.w3.org/2000/svg" xmlns:xlink="http://www.w3.org/1999/xlink">
 <defs>
  <symbol id="k" overflow="visible">
   <path d="m6.3906-0.375c-0.33594 0.16797-0.67969 0.29297-1.0312 0.375-0.35547 0.09375-0.73047 0.14062-1.125 0.14062-1.1562 0-2.0742-0.32031-2.75-0.96875-0.67969-0.65625-1.0156-1.5352-1.0156-2.6406 0-1.1133 0.33594-1.9922 1.0156-2.6406 0.67578-0.64453 1.5938-0.96875 2.75-0.96875 0.39453 0 0.76953 0.046875 1.125 0.14062 0.35156 0.085938 0.69531 0.21094 1.0312 0.375v1.4375c-0.33594-0.21875-0.66406-0.37891-0.98438-0.48438-0.32422-0.11328-0.66406-0.17188-1.0156-0.17188-0.64844 0-1.1523 0.21094-1.5156 0.625-0.36719 0.40625-0.54688 0.96875-0.54688 1.6875s0.17969 1.2891 0.54688 1.7031c0.36328 0.40625 0.86719 0.60938 1.5156 0.60938 0.35156 0 0.69141-0.050781 1.0156-0.15625 0.32031-0.11328 0.64844-0.28125 0.98438-0.5z"/>
  </symbol>
  <symbol id="d" overflow="visible">
   <path d="m4.6719-3.7969c-0.14844-0.0625-0.29297-0.10938-0.4375-0.14062-0.14844-0.039062-0.29297-0.0625-0.4375-0.0625-0.42969 0-0.75781 0.14062-0.98438 0.42188-0.23047 0.27344-0.34375 0.66406-0.34375 1.1719v2.4062h-1.6719v-5.2188h1.6719v0.85938c0.20703-0.34375 0.45312-0.59375 0.73438-0.75s0.61328-0.23438 1-0.23438c0.050781 0 0.10938 0.007812 0.17188 0.015625 0.070312 0 0.17188 0.011719 0.29688 0.03125z"/>
  </symbol>
  <symbol id="b" overflow="visible">
   <path d="m6-2.625v0.48438h-3.8906c0.039063 0.38672 0.17969 0.67969 0.42188 0.875 0.23828 0.19922 0.57812 0.29688 1.0156 0.29688 0.35156 0 0.71094-0.050781 1.0781-0.15625 0.36328-0.10156 0.73828-0.25781 1.125-0.46875v1.2812c-0.38672 0.14844-0.77734 0.25781-1.1719 0.32812-0.39844 0.082031-0.79297 0.125-1.1875 0.125-0.9375 0-1.6719-0.23828-2.2031-0.71875-0.52344-0.47656-0.78125-1.1484-0.78125-2.0156 0-0.85156 0.25391-1.5234 0.76562-2.0156 0.51953-0.48828 1.2266-0.73438 2.125-0.73438 0.82031 0 1.4766 0.25 1.9688 0.75 0.48828 0.49219 0.73438 1.1484 0.73438 1.9688zm-1.7031-0.54688c0-0.32031-0.09375-0.57812-0.28125-0.76562-0.1875-0.19531-0.42969-0.29688-0.71875-0.29688-0.32422 0-0.58984 0.09375-0.79688 0.28125-0.19922 0.17969-0.32422 0.4375-0.375 0.78125z"/>
  </symbol>
  <symbol id="a" overflow="visible">
   <path d="m3.1406-2.3438c-0.35547 0-0.62109 0.0625-0.79688 0.1875-0.16797 0.11719-0.25 0.28906-0.25 0.51562 0 0.21094 0.066406 0.375 0.20312 0.5 0.14453 0.11719 0.34375 0.17188 0.59375 0.17188 0.3125 0 0.57031-0.10938 0.78125-0.32812 0.21875-0.22656 0.32812-0.51562 0.32812-0.85938v-0.1875zm2.5469-0.625v2.9688h-1.6875v-0.76562c-0.21875 0.3125-0.46875 0.54297-0.75 0.6875-0.28125 0.14453-0.62109 0.21875-1.0156 0.21875-0.54297 0-0.98438-0.15625-1.3281-0.46875-0.33594-0.32031-0.5-0.73438-0.5-1.2344 0-0.61328 0.20703-1.0625 0.625-1.3438 0.42578-0.28906 1.0859-0.4375 1.9844-0.4375h0.98438v-0.125c0-0.25781-0.10547-0.45312-0.3125-0.57812-0.21094-0.125-0.53125-0.1875-0.96875-0.1875-0.35547 0-0.6875 0.039063-1 0.10938-0.30469 0.074219-0.58984 0.18359-0.85938 0.32812v-1.2812c0.36328-0.082031 0.72266-0.14453 1.0781-0.1875 0.36328-0.050781 0.72266-0.078125 1.0781-0.078125 0.94531 0 1.6289 0.1875 2.0469 0.5625 0.41406 0.375 0.625 0.98047 0.625 1.8125z"/>
  </symbol>
  <symbol id="c" overflow="visible">
   <path d="m2.625-6.6875v1.4688h1.7188v1.2031h-1.7188v2.2031c0 0.24219 0.046875 0.40625 0.14062 0.5 0.09375 0.085938 0.28516 0.125 0.57812 0.125h0.84375v1.1875h-1.4219c-0.65625 0-1.125-0.13281-1.4062-0.40625-0.27344-0.28125-0.40625-0.75-0.40625-1.4062v-2.2031h-0.82812v-1.2031h0.82812v-1.4688z"/>
  </symbol>
  <symbol id="g" overflow="visible">
   <path d="m4.3438-4.4531v-2.7812h1.6719v7.2344h-1.6719v-0.75c-0.23047 0.30469-0.48438 0.52734-0.76562 0.67188-0.27344 0.14453-0.58984 0.21875-0.95312 0.21875-0.63672 0-1.1641-0.25391-1.5781-0.76562-0.41797-0.50781-0.625-1.1641-0.625-1.9688 0-0.8125 0.20703-1.4727 0.625-1.9844 0.41406-0.50781 0.94141-0.76562 1.5781-0.76562 0.36328 0 0.67969 0.074219 0.95312 0.21875 0.28125 0.14844 0.53516 0.37109 0.76562 0.67188zm-1.0938 3.375c0.35156 0 0.625-0.12891 0.8125-0.39062 0.1875-0.25781 0.28125-0.63281 0.28125-1.125 0-0.5-0.09375-0.87891-0.28125-1.1406-0.1875-0.25781-0.46094-0.39062-0.8125-0.39062-0.35547 0-0.625 0.13281-0.8125 0.39062-0.1875 0.26172-0.28125 0.64062-0.28125 1.1406 0 0.49219 0.09375 0.86719 0.28125 1.125 0.1875 0.26172 0.45703 0.39062 0.8125 0.39062z"/>
  </symbol>
  <symbol id="m" overflow="visible">
   <path d="m3.5781-1.0781c0.35156 0 0.625-0.12891 0.8125-0.39062 0.1875-0.25781 0.28125-0.63281 0.28125-1.125 0-0.5-0.09375-0.87891-0.28125-1.1406-0.1875-0.25781-0.46094-0.39062-0.8125-0.39062-0.36719 0-0.64062 0.13281-0.82812 0.39062-0.1875 0.26172-0.28125 0.64062-0.28125 1.1406 0 0.49219 0.09375 0.86719 0.28125 1.125 0.1875 0.26172 0.46094 0.39062 0.82812 0.39062zm-1.1094-3.375c0.22656-0.30078 0.48438-0.52344 0.76562-0.67188 0.28125-0.14453 0.59766-0.21875 0.95312-0.21875 0.64453 0 1.1719 0.25781 1.5781 0.76562 0.41406 0.51172 0.625 1.1719 0.625 1.9844 0 0.80469-0.21094 1.4609-0.625 1.9688-0.40625 0.51172-0.93359 0.76562-1.5781 0.76562-0.35547 0-0.67188-0.074219-0.95312-0.21875-0.28125-0.14453-0.53906-0.36719-0.76562-0.67188v0.75h-1.6719v-7.2344h1.6719z"/>
  </symbol>
  <symbol id="l" overflow="visible">
   <path d="m0.10938-5.2188h1.6719l1.4062 3.5469 1.1875-3.5469h1.6719l-2.2031 5.7188c-0.21875 0.57031-0.47656 0.97266-0.76562 1.2031-0.29297 0.23828-0.67969 0.35938-1.1562 0.35938h-0.96875v-1.0938h0.51562c0.28906 0 0.5-0.046875 0.625-0.14062s0.22266-0.25781 0.29688-0.48438l0.046875-0.14062z"/>
  </symbol>
  <symbol id="f" overflow="visible">
   <path d="m0.79688-7.2344h1.6719v7.2344h-1.6719z"/>
  </symbol>
  <symbol id="j" overflow="visible">
   <path d="m0.75-2.0312v-3.1875h1.6719v0.53125c0 0.28125-0.007813 0.63672-0.015625 1.0625v0.84375c0 0.42969 0.007812 0.73438 0.03125 0.92188 0.019531 0.17969 0.0625 0.30859 0.125 0.39062 0.0625 0.11719 0.14453 0.20312 0.25 0.26562 0.11328 0.054687 0.24219 0.078125 0.39062 0.078125 0.34375 0 0.61328-0.12891 0.8125-0.39062 0.19531-0.26953 0.29688-0.64453 0.29688-1.125v-2.5781h1.6719v5.2188h-1.6719v-0.75c-0.25 0.30469-0.51562 0.52734-0.79688 0.67188-0.28125 0.14453-0.58984 0.21875-0.92188 0.21875-0.60547 0-1.0625-0.17969-1.375-0.54688-0.3125-0.375-0.46875-0.91406-0.46875-1.625z"/>
  </symbol>
  <symbol id="i" overflow="visible">
   <path d="m0.79688-5.2188h1.6719v5.2188h-1.6719zm0-2.0156h1.6719v1.3594h-1.6719z"/>
  </symbol>
  <symbol id="v" overflow="visible">
   <path d="m3.4219-3.875c0.375 0 0.64062-0.066406 0.79688-0.20312 0.16406-0.13281 0.25-0.36328 0.25-0.6875 0-0.3125-0.085938-0.53516-0.25-0.67188-0.15625-0.14453-0.42188-0.21875-0.79688-0.21875h-0.75v1.7812zm-0.75 1.25v2.625h-1.7969v-6.9531h2.7344c0.91406 0 1.5859 0.15625 2.0156 0.46875 0.42578 0.30469 0.64062 0.78906 0.64062 1.4531 0 0.46094-0.11719 0.83984-0.34375 1.1406-0.21875 0.29297-0.55469 0.50781-1 0.64062 0.25 0.054688 0.46875 0.17969 0.65625 0.375 0.19531 0.19922 0.39453 0.5 0.59375 0.90625l0.98438 1.9688h-1.9219l-0.84375-1.7344c-0.16797-0.34375-0.33984-0.57812-0.51562-0.70312-0.17969-0.125-0.41406-0.1875-0.70312-0.1875z"/>
  </symbol>
  <symbol id="u" overflow="visible">
   <path d="m0.14062-5.2188h1.6719l1.2969 3.6094 1.2969-3.6094h1.6719l-2.0625 5.2188h-1.8281z"/>
  </symbol>
  <symbol id="h" overflow="visible">
   <path d="m6.0469-3.1719v3.1719h-1.6875v-2.4219c0-0.45703-0.011719-0.76953-0.03125-0.9375-0.011719-0.16406-0.042969-0.28906-0.09375-0.375-0.074219-0.11328-0.16797-0.19531-0.28125-0.25-0.10547-0.0625-0.23047-0.09375-0.375-0.09375-0.34375 0-0.61719 0.13672-0.8125 0.40625-0.19922 0.26172-0.29688 0.63281-0.29688 1.1094v2.5625h-1.6719v-5.2188h1.6719v0.76562c0.25-0.30078 0.51562-0.52344 0.79688-0.67188 0.28125-0.14453 0.59375-0.21875 0.9375-0.21875 0.60156 0 1.0625 0.1875 1.375 0.5625 0.3125 0.36719 0.46875 0.90234 0.46875 1.6094z"/>
  </symbol>
  <symbol id="t" overflow="visible">
   <path d="m4.2344-7.2344v1.0938h-0.92188c-0.24219 0-0.40625 0.042969-0.5 0.125-0.09375 0.085937-0.14062 0.23047-0.14062 0.4375v0.35938h1.4219v1.2031h-1.4219v4.0156h-1.6562v-4.0156h-0.82812v-1.2031h0.82812v-0.35938c0-0.5625 0.15625-0.97656 0.46875-1.25 0.3125-0.26953 0.80078-0.40625 1.4688-0.40625z"/>
  </symbol>
  <symbol id="e" overflow="visible">
   <path d="m3.2812-4.1406c-0.36719 0-0.64844 0.13672-0.84375 0.40625-0.19922 0.26172-0.29688 0.64062-0.29688 1.1406 0 0.49219 0.097656 0.87109 0.29688 1.1406 0.19531 0.26172 0.47656 0.39062 0.84375 0.39062 0.36328 0 0.64062-0.12891 0.82812-0.39062 0.19531-0.26953 0.29688-0.64844 0.29688-1.1406 0-0.5-0.10156-0.87891-0.29688-1.1406-0.1875-0.26953-0.46484-0.40625-0.82812-0.40625zm0-1.2031c0.89453 0 1.5938 0.24609 2.0938 0.73438 0.50781 0.48047 0.76562 1.1523 0.76562 2.0156 0 0.85547-0.25781 1.5273-0.76562 2.0156-0.5 0.48047-1.1992 0.71875-2.0938 0.71875-0.89844 0-1.6016-0.23828-2.1094-0.71875-0.51172-0.48828-0.76562-1.1602-0.76562-2.0156 0-0.86328 0.25391-1.5352 0.76562-2.0156 0.50781-0.48828 1.2109-0.73438 2.1094-0.73438z"/>
  </symbol>
  <symbol id="s" overflow="visible">
   <path d="m5.625-4.3438c0.21875-0.32031 0.46875-0.56641 0.75-0.73438 0.28906-0.17578 0.61328-0.26562 0.96875-0.26562 0.59375 0 1.0469 0.1875 1.3594 0.5625 0.3125 0.36719 0.46875 0.90234 0.46875 1.6094v3.1719h-1.6719v-2.7188-0.125c0.007812-0.039062 0.015625-0.10156 0.015625-0.1875 0-0.36328-0.058594-0.62891-0.17188-0.79688-0.10547-0.16406-0.27734-0.25-0.51562-0.25-0.32422 0-0.57422 0.13281-0.75 0.39062-0.16797 0.26172-0.25 0.63672-0.25 1.125v2.5625h-1.6875v-2.7188c0-0.57031-0.054687-0.94141-0.15625-1.1094-0.09375-0.16406-0.26562-0.25-0.51562-0.25-0.32422 0-0.57422 0.13281-0.75 0.39062-0.16797 0.26172-0.25 0.63672-0.25 1.125v2.5625h-1.6719v-5.2188h1.6719v0.76562c0.20703-0.28906 0.44141-0.50781 0.70312-0.65625 0.25781-0.15625 0.55078-0.23438 0.875-0.23438 0.36328 0 0.67969 0.089844 0.95312 0.26562 0.28125 0.17969 0.48828 0.42188 0.625 0.73438z"/>
  </symbol>
  <symbol id="r" overflow="visible">
   <path d="m6.0469-3.1719v3.1719h-1.6875v-2.4219c0-0.45703-0.011719-0.76953-0.03125-0.9375-0.011719-0.16406-0.042969-0.28906-0.09375-0.375-0.074219-0.11328-0.16797-0.19531-0.28125-0.25-0.10547-0.0625-0.23047-0.09375-0.375-0.09375-0.34375 0-0.61719 0.13672-0.8125 0.40625-0.19922 0.26172-0.29688 0.63281-0.29688 1.1094v2.5625h-1.6719v-7.2344h1.6719v2.7812c0.25-0.30078 0.51562-0.52344 0.79688-0.67188 0.28125-0.14453 0.59375-0.21875 0.9375-0.21875 0.60156 0 1.0625 0.1875 1.375 0.5625 0.3125 0.36719 0.46875 0.90234 0.46875 1.6094z"/>
  </symbol>
  <symbol id="q" overflow="visible">
   <path d="m0.875-6.9531h2l2.5312 4.7656v-4.7656h1.7031v6.9531h-2.0156l-2.5156-4.7656v4.7656h-1.7031z"/>
  </symbol>
  <symbol id="p" overflow="visible">
   <path d="m0.875-6.9531h2.9688c0.88281 0 1.5625 0.19922 2.0312 0.59375 0.47656 0.39844 0.71875 0.95312 0.71875 1.6719 0 0.73047-0.24219 1.293-0.71875 1.6875-0.46875 0.39844-1.1484 0.59375-2.0312 0.59375h-1.1719v2.4062h-1.7969zm1.7969 1.2969v1.9531h0.98438c0.34375 0 0.60938-0.082031 0.79688-0.25 0.19531-0.17578 0.29688-0.42188 0.29688-0.73438 0-0.30078-0.10156-0.53516-0.29688-0.70312-0.1875-0.17578-0.45312-0.26562-0.79688-0.26562z"/>
  </symbol>
  <symbol id="o" overflow="visible">
   <path d="m0.79688-5.2188h1.6719v5.125c0 0.69531-0.16797 1.2266-0.5 1.5938-0.33594 0.375-0.82422 0.5625-1.4688 0.5625h-0.8125v-1.0938h0.28125c0.32031 0 0.53906-0.074219 0.65625-0.21875 0.11328-0.14844 0.17188-0.42969 0.17188-0.84375zm0-2.0156h1.6719v1.3594h-1.6719z"/>
  </symbol>
  <symbol id="n" overflow="visible">
   <path d="m5.0156-5.0469v1.3594c-0.23047-0.15625-0.46094-0.26953-0.6875-0.34375-0.23047-0.070312-0.46484-0.10938-0.70312-0.10938-0.46875 0-0.83594 0.13672-1.0938 0.40625-0.26172 0.27344-0.39062 0.65234-0.39062 1.1406 0 0.48047 0.12891 0.85547 0.39062 1.125 0.25781 0.27344 0.625 0.40625 1.0938 0.40625 0.25781 0 0.50391-0.035156 0.73438-0.10938 0.23828-0.082031 0.45703-0.19531 0.65625-0.34375v1.3594c-0.26172 0.09375-0.52734 0.16406-0.79688 0.21875-0.27344 0.050781-0.54297 0.078125-0.8125 0.078125-0.9375 0-1.6719-0.23828-2.2031-0.71875-0.53125-0.48828-0.79688-1.1602-0.79688-2.0156 0-0.86328 0.26562-1.5352 0.79688-2.0156 0.53125-0.48828 1.2656-0.73438 2.2031-0.73438 0.28125 0 0.55078 0.027344 0.8125 0.078125 0.25781 0.054687 0.52344 0.125 0.79688 0.21875z"/>
  </symbol>
 </defs>
 <g>
  <path d="m486.19 238.09c-3.8086 5.7148-15.238 1.9062-11.43-3.8086 9.5234-30.477 53.332-83.809 89.523-68.57 7.6172 3.8086 11.43 11.43 5.7148 19.047-3.8086 9.5234-15.238 19.047-40 28.57-7.6172 3.8086-11.43-7.6172-3.8086-9.5234 20.953-9.5234 30.477-17.145 34.285-22.855 0-1.9062 0-3.8086-1.9062-3.8086-28.57-13.332-64.762 36.191-72.383 60.953zm-314.29 217.14c-7.6172-5.7148 1.9062-15.238 7.6172-9.5234 85.715 70.477 255.24 70.477 340.95 0 5.7148-5.7148 13.332 3.8086 7.6172 9.5234-89.523 74.285-266.67 74.285-356.19 0zm396.19-222.86v215.24c0 150.48-432.38 148.57-432.38 0v-213.33c-41.906-15.238-80-43.809-80-91.43 0-85.715 120-121.91 190.48-97.145 40-41.906 99.047-57.145 152.38-38.094 20.953 7.6172 40 20.953 55.238 36.191 70.477-22.855 190.48 13.332 190.48 99.047 0 45.715-36.191 74.285-76.191 89.523zm-415.24 7.6172v207.62c0 125.71 398.09 127.62 398.09 0v-209.52c-7.6172 1.9062-17.145 3.8086-26.668 5.7148-7.6172 0-7.6172-11.43 0-13.332 45.715-3.8086 108.57-34.285 108.57-87.617 0-74.285-108.57-106.67-169.52-89.523 24.762 32.383 34.285 74.285 26.668 114.29-11.43 70.477-74.285 120-142.86 116.19-7.6172 0-7.6172-11.43 0-11.43 64.762 1.9062 120-43.809 131.43-106.67 11.43-62.855-24.762-125.71-83.809-146.67-60.953-20.953-127.62 3.8086-160 60.953-1.9062 7.6172-13.332 1.9062-9.5234-5.7148 3.8086-7.6172 7.6172-13.332 13.332-19.047-62.855-19.047-171.43 11.43-171.43 87.617 0 53.332 60.953 83.809 108.57 87.617 7.6172 1.9062 7.6172 13.332 0 13.332-7.6172-1.9062-15.238-1.9062-22.855-3.8086zm70.477-17.145c3.8086 5.7148-5.7148 11.43-9.5234 5.7148-7.6172-13.332-53.332-83.809-76.191-68.57-1.9062 1.9062-1.9062 5.7148-1.9062 9.5234 1.9062 7.6172 9.5234 19.047 26.668 28.57 5.7148 3.8086 0 13.332-5.7148 9.5234-20.953-11.43-30.477-24.762-32.383-36.191-1.9062-9.5234 1.9062-15.238 7.6172-20.953 30.477-22.855 81.906 53.332 91.43 72.383z" fill-rule="evenodd"/>
  <use x="55.714844" y="588.570312" xlink:href="#k"/>
  <use x="62.703125" y="588.570312" xlink:href="#d"/>
  <use x="67.402344" y="588.570312" xlink:href="#b"/>
  <use x="73.859375" y="588.570312" xlink:href="#a"/>
  <use x="80.285156" y="588.570312" xlink:href="#c"/>
  <use x="84.839844" y="588.570312" xlink:href="#b"/>
  <use x="91.296875" y="588.570312" xlink:href="#g"/>
  <use x="101.429688" y="588.570312" xlink:href="#m"/>
  <use x="108.25" y="588.570312" xlink:href="#l"/>
  <use x="117.773438" y="588.570312" xlink:href="#k"/>
  <use x="124.761719" y="588.570312" xlink:href="#f"/>
  <use x="128.027344" y="588.570312" xlink:href="#a"/>
  <use x="134.453125" y="588.570312" xlink:href="#j"/>
  <use x="141.234375" y="588.570312" xlink:href="#g"/>
  <use x="148.050781" y="588.570312" xlink:href="#i"/>
  <use x="151.316406" y="588.570312" xlink:href="#a"/>
  <use x="161.058594" y="588.570312" xlink:href="#v"/>
  <use x="168.390625" y="588.570312" xlink:href="#b"/>
  <use x="174.851562" y="588.570312" xlink:href="#u"/>
  <use x="181.058594" y="588.570312" xlink:href="#a"/>
  <use x="187.484375" y="588.570312" xlink:href="#f"/>
  <use x="190.75" y="588.570312" xlink:href="#i"/>
  <use x="194.015625" y="588.570312" xlink:href="#h"/>
  <use x="200.792969" y="588.570312" xlink:href="#a"/>
  <use x="55.714844" y="598.09375" xlink:href="#t"/>
  <use x="59.859375" y="598.09375" xlink:href="#d"/>
  <use x="64.554687" y="598.09375" xlink:href="#e"/>
  <use x="71.097656" y="598.09375" xlink:href="#s"/>
  <use x="84.335938" y="598.09375" xlink:href="#c"/>
  <use x="88.890625" y="598.09375" xlink:href="#r"/>
  <use x="95.667969" y="598.09375" xlink:href="#b"/>
  <use x="105.445312" y="598.09375" xlink:href="#q"/>
  <use x="113.414062" y="598.09375" xlink:href="#e"/>
  <use x="119.957031" y="598.09375" xlink:href="#j"/>
  <use x="126.738281" y="598.09375" xlink:href="#h"/>
  <use x="136.835938" y="598.09375" xlink:href="#p"/>
  <use x="143.8125" y="598.09375" xlink:href="#d"/>
  <use x="148.511719" y="598.09375" xlink:href="#e"/>
  <use x="155.054688" y="598.09375" xlink:href="#o"/>
  <use x="158.320312" y="598.09375" xlink:href="#b"/>
  <use x="164.777344" y="598.09375" xlink:href="#n"/>
  <use x="170.421875" y="598.09375" xlink:href="#c"/>
 </g>
</svg>
