<svg xmlns="http://www.w3.org/2000/svg" xmlns:xlink="http://www.w3.org/1999/xlink" width="700pt" height="700pt" version="1.1" viewBox="0 0 700 700"><defs><symbol id="z" overflow="visible"><path d="m18.766-1.125c-0.96875 0.5-1.9805 0.875-3.0312 1.125-1.043 0.25781-2.1367 0.39062-3.2812 0.39062-3.3984 0-6.0898-0.94531-8.0781-2.8438-1.9922-1.9062-2.9844-4.4844-2.9844-7.7344 0-3.2578 0.99219-5.8359 2.9844-7.7344 1.9883-1.9062 4.6797-2.8594 8.0781-2.8594 1.1445 0 2.2383 0.13281 3.2812 0.39062 1.0508 0.25 2.0625 0.625 3.0312 1.125v4.2188c-0.98047-0.65625-1.9453-1.1406-2.8906-1.4531-0.94922-0.3125-1.9492-0.46875-3-0.46875-1.875 0-3.3516 0.60547-4.4219 1.8125-1.0742 1.1992-1.6094 2.8555-1.6094 4.9688 0 2.1055 0.53516 3.7617 1.6094 4.9688 1.0703 1.1992 2.5469 1.7969 4.4219 1.7969 1.0508 0 2.0508-0.14844 3-0.45312 0.94531-0.3125 1.9102-0.80078 2.8906-1.4688z"/></symbol><symbol id="d" overflow="visible"><path d="m13.734-11.141c-0.4375-0.19531-0.87109-0.34375-1.2969-0.4375-0.41797-0.10156-0.83984-0.15625-1.2656-0.15625-1.2617 0-2.2305 0.40625-2.9062 1.2188-0.67969 0.80469-1.0156 1.9531-1.0156 3.4531v7.0625h-4.8906v-15.312h4.8906v2.5156c0.625-1 1.3438-1.7266 2.1562-2.1875 0.82031-0.46875 1.8008-0.70312 2.9375-0.70312 0.16406 0 0.34375 0.011719 0.53125 0.03125 0.19531 0.011719 0.47656 0.039062 0.84375 0.078125z"/></symbol><symbol id="b" overflow="visible"><path d="m17.641-7.7031v1.4062h-11.453c0.125 1.1484 0.53906 2.0078 1.25 2.5781 0.70703 0.57422 1.7031 0.85938 2.9844 0.85938 1.0312 0 2.082-0.14844 3.1562-0.45312 1.082-0.3125 2.1914-0.77344 3.3281-1.3906v3.7656c-1.1562 0.4375-2.3125 0.76562-3.4688 0.98438-1.1562 0.22656-2.3125 0.34375-3.4688 0.34375-2.7734 0-4.9297-0.70312-6.4688-2.1094-1.5312-1.4062-2.2969-3.3789-2.2969-5.9219 0-2.5 0.75391-4.4609 2.2656-5.8906 1.5078-1.4375 3.582-2.1562 6.2188-2.1562 2.4062 0 4.332 0.73047 5.7812 2.1875 1.4453 1.4492 2.1719 3.3828 2.1719 5.7969zm-5.0312-1.625c0-0.92578-0.27344-1.6719-0.8125-2.2344-0.54297-0.57031-1.25-0.85938-2.125-0.85938-0.94922 0-1.7188 0.26562-2.3125 0.79688s-0.96484 1.2969-1.1094 2.2969z"/></symbol><symbol id="f" overflow="visible"><path d="m9.2188-6.8906c-1.0234 0-1.793 0.17188-2.3125 0.51562-0.51172 0.34375-0.76562 0.85547-0.76562 1.5312 0 0.625 0.20703 1.1172 0.625 1.4688 0.41406 0.34375 0.98828 0.51562 1.7188 0.51562 0.92578 0 1.7031-0.32812 2.3281-0.98438 0.63281-0.66406 0.95312-1.4922 0.95312-2.4844v-0.5625zm7.4688-1.8438v8.7344h-4.9219v-2.2656c-0.65625 0.92969-1.3984 1.6055-2.2188 2.0312-0.82422 0.41406-1.8242 0.625-3 0.625-1.5859 0-2.8711-0.45703-3.8594-1.375-0.99219-0.92578-1.4844-2.1289-1.4844-3.6094 0-1.7891 0.61328-3.1016 1.8438-3.9375 1.2383-0.84375 3.1797-1.2656 5.8281-1.2656h2.8906v-0.39062c0-0.76953-0.30859-1.332-0.92188-1.6875-0.61719-0.36328-1.5703-0.54688-2.8594-0.54688-1.0547 0-2.0312 0.10547-2.9375 0.3125-0.89844 0.21094-1.7305 0.52344-2.5 0.9375v-3.7344c1.0391-0.25 2.0859-0.44141 3.1406-0.57812 1.0625-0.13281 2.125-0.20312 3.1875-0.20312 2.7578 0 4.75 0.54688 5.9688 1.6406 1.2266 1.0859 1.8438 2.8555 1.8438 5.3125z"/></symbol><symbol id="c" overflow="visible"><path d="m7.7031-19.656v4.3438h5.0469v3.5h-5.0469v6.5c0 0.71094 0.14062 1.1875 0.42188 1.4375s0.83594 0.375 1.6719 0.375h2.5156v3.5h-4.1875c-1.9375 0-3.3125-0.39844-4.125-1.2031-0.80469-0.8125-1.2031-2.1797-1.2031-4.1094v-6.5h-2.4219v-3.5h2.4219v-4.3438z"/></symbol><symbol id="n" overflow="visible"><path d="m12.766-13.078v-8.2031h4.9219v21.281h-4.9219v-2.2188c-0.66797 0.90625-1.4062 1.5703-2.2188 1.9844s-1.7578 0.625-2.8281 0.625c-1.8867 0-3.4336-0.75-4.6406-2.25-1.2109-1.5-1.8125-3.4258-1.8125-5.7812 0-2.3633 0.60156-4.2969 1.8125-5.7969 1.207-1.5 2.7539-2.25 4.6406-2.25 1.0625 0 2 0.21484 2.8125 0.64062 0.82031 0.42969 1.5664 1.0859 2.2344 1.9688zm-3.2188 9.9219c1.0391 0 1.8359-0.37891 2.3906-1.1406 0.55078-0.76953 0.82812-1.8828 0.82812-3.3438 0-1.457-0.27734-2.5664-0.82812-3.3281-0.55469-0.76953-1.3516-1.1562-2.3906-1.1562-1.043 0-1.8398 0.38672-2.3906 1.1562-0.55469 0.76172-0.82812 1.8711-0.82812 3.3281 0 1.4609 0.27344 2.5742 0.82812 3.3438 0.55078 0.76172 1.3477 1.1406 2.3906 1.1406z"/></symbol><symbol id="m" overflow="visible"><path d="m10.5-3.1562c1.0508 0 1.8516-0.37891 2.4062-1.1406 0.55078-0.76953 0.82812-1.8828 0.82812-3.3438 0-1.457-0.27734-2.5664-0.82812-3.3281-0.55469-0.76953-1.3555-1.1562-2.4062-1.1562-1.0547 0-1.8594 0.38672-2.4219 1.1562-0.55469 0.77344-0.82812 1.8828-0.82812 3.3281 0 1.4492 0.27344 2.5586 0.82812 3.3281 0.5625 0.77344 1.3672 1.1562 2.4219 1.1562zm-3.25-9.9219c0.67578-0.88281 1.4219-1.5391 2.2344-1.9688 0.82031-0.42578 1.7656-0.64062 2.8281-0.64062 1.8945 0 3.4453 0.75 4.6562 2.25 1.207 1.5 1.8125 3.4336 1.8125 5.7969 0 2.3555-0.60547 4.2812-1.8125 5.7812-1.2109 1.5-2.7617 2.25-4.6562 2.25-1.0625 0-2.0078-0.21094-2.8281-0.625-0.8125-0.42578-1.5586-1.0859-2.2344-1.9844v2.2188h-4.8906v-21.281h4.8906z"/></symbol><symbol id="e" overflow="visible"><path d="m0.34375-15.312h4.8906l4.125 10.391 3.5-10.391h4.8906l-6.4375 16.766c-0.64844 1.6953-1.4023 2.8828-2.2656 3.5625-0.86719 0.6875-2 1.0312-3.4062 1.0312h-2.8438v-3.2188h1.5312c0.83203 0 1.4375-0.13672 1.8125-0.40625 0.38281-0.26172 0.67969-0.73047 0.89062-1.4062l0.14062-0.42188z"/></symbol><symbol id="l" overflow="visible"><path d="m2.5781-20.406h6.6875l4.6562 10.922 4.6719-10.922h6.6875v20.406h-4.9844v-14.938l-4.7031 11.016h-3.3281l-4.7031-11.016v14.938h-4.9844z"/></symbol><symbol id="a" overflow="visible"><path d="m9.6406-12.188c-1.0859 0-1.9141 0.39062-2.4844 1.1719-0.57422 0.78125-0.85938 1.9062-0.85938 3.375s0.28516 2.5938 0.85938 3.375c0.57031 0.77344 1.3984 1.1562 2.4844 1.1562 1.0625 0 1.875-0.38281 2.4375-1.1562 0.57031-0.78125 0.85938-1.9062 0.85938-3.375s-0.28906-2.5938-0.85938-3.375c-0.5625-0.78125-1.375-1.1719-2.4375-1.1719zm0-3.5c2.6328 0 4.6914 0.71484 6.1719 2.1406 1.4766 1.418 2.2188 3.3867 2.2188 5.9062 0 2.5117-0.74219 4.4805-2.2188 5.9062-1.4805 1.418-3.5391 2.125-6.1719 2.125-2.6484 0-4.7148-0.70703-6.2031-2.125-1.4922-1.4258-2.2344-3.3945-2.2344-5.9062 0-2.5195 0.74219-4.4883 2.2344-5.9062 1.4883-1.4258 3.5547-2.1406 6.2031-2.1406z"/></symbol><symbol id="k" overflow="visible"><path d="m14.719-14.828v3.9844c-0.65625-0.45703-1.3242-0.79688-2-1.0156-0.66797-0.21875-1.3594-0.32812-2.0781-0.32812-1.3672 0-2.4336 0.40234-3.2031 1.2031-0.76172 0.79297-1.1406 1.9062-1.1406 3.3438 0 1.4297 0.37891 2.543 1.1406 3.3438 0.76953 0.79297 1.8359 1.1875 3.2031 1.1875 0.75781 0 1.4844-0.10938 2.1719-0.32812 0.6875-0.22656 1.3203-0.56641 1.9062-1.0156v4c-0.76172 0.28125-1.5391 0.48828-2.3281 0.625-0.78125 0.14453-1.5742 0.21875-2.375 0.21875-2.7617 0-4.9219-0.70703-6.4844-2.125-1.5547-1.4141-2.3281-3.3828-2.3281-5.9062 0-2.5312 0.77344-4.5039 2.3281-5.9219 1.5625-1.4141 3.7227-2.125 6.4844-2.125 0.80078 0 1.5938 0.074219 2.375 0.21875 0.78125 0.13672 1.5547 0.35156 2.3281 0.64062z"/></symbol><symbol id="j" overflow="visible"><path d="m17.75-9.3281v9.3281h-4.9219v-7.1094c0-1.3438-0.03125-2.2656-0.09375-2.7656s-0.16797-0.86719-0.3125-1.1094c-0.1875-0.3125-0.44922-0.55469-0.78125-0.73438-0.32422-0.17578-0.69531-0.26562-1.1094-0.26562-1.0234 0-1.8242 0.39844-2.4062 1.1875-0.58594 0.78125-0.875 1.8711-0.875 3.2656v7.5312h-4.8906v-21.281h4.8906v8.2031c0.73828-0.88281 1.5195-1.5391 2.3438-1.9688 0.83203-0.42578 1.75-0.64062 2.75-0.64062 1.7695 0 3.1133 0.54688 4.0312 1.6406 0.91406 1.0859 1.375 2.6562 1.375 4.7188z"/></symbol><symbol id="y" overflow="visible"><path d="m10.047-11.359c1.1016 0 1.8945-0.20312 2.375-0.60938 0.47656-0.41406 0.71875-1.0938 0.71875-2.0312 0-0.92578-0.24219-1.5859-0.71875-1.9844-0.48047-0.40625-1.2734-0.60938-2.375-0.60938h-2.2188v5.2344zm-2.2188 3.6406v7.7188h-5.25v-20.406h8.0312c2.6875 0 4.6562 0.45312 5.9062 1.3594 1.2578 0.89844 1.8906 2.3203 1.8906 4.2656 0 1.3555-0.32812 2.4648-0.98438 3.3281-0.64844 0.86719-1.625 1.5-2.9375 1.9062 0.71875 0.16797 1.3594 0.54297 1.9219 1.125 0.57031 0.57422 1.1484 1.4492 1.7344 2.625l2.8594 5.7969h-5.6094l-2.4844-5.0781c-0.5-1.0195-1.0117-1.7109-1.5312-2.0781-0.51172-0.375-1.1953-0.5625-2.0469-0.5625z"/></symbol><symbol id="i" overflow="visible"><path d="m2.3594-15.312h4.8906v15.312h-4.8906zm0-5.9688h4.8906v4h-4.8906z"/></symbol><symbol id="x" overflow="visible"><path d="m1.5938-15.312h13.359v3.4219l-8.0625 8.3906h8.0625v3.5h-13.688v-3.4219l8.0625-8.3906h-7.7344z"/></symbol><symbol id="h" overflow="visible"><path d="m2.3594-21.281h4.8906v11.594l5.625-5.625h5.6875l-7.4688 7.0312 8.0625 8.2812h-5.9375l-5.9688-6.3906v6.3906h-4.8906z"/></symbol><symbol id="w" overflow="visible"><path d="m2.5781-20.406h14.203v3.9688h-8.9531v3.7969h8.4219v3.9844h-8.4219v4.6719h9.25v3.9844h-14.5z"/></symbol><symbol id="v" overflow="visible"><path d="m0.82812-20.406h5.0469l3.5312 14.828 3.5-14.828h5.0781l3.5 14.828 3.5156-14.828h5.0156l-4.8125 20.406h-6.0781l-3.7031-15.516-3.6562 15.516h-6.0781z"/></symbol><symbol id="u" overflow="visible"><path d="m2.3594-21.281h4.8906v21.281h-4.8906z"/></symbol><symbol id="g" overflow="visible"><path d="m2.1875-5.9688v-9.3438h4.9219v1.5312c0 0.83594-0.007813 1.875-0.015625 3.125-0.011719 1.25-0.015625 2.0859-0.015625 2.5 0 1.2422 0.03125 2.1328 0.09375 2.6719 0.070313 0.54297 0.17969 0.93359 0.32812 1.1719 0.20703 0.32422 0.47266 0.57422 0.79688 0.75 0.32031 0.16797 0.69141 0.25 1.1094 0.25 1.0195 0 1.8203-0.39062 2.4062-1.1719 0.58203-0.78125 0.875-1.8672 0.875-3.2656v-7.5625h4.8906v15.312h-4.8906v-2.2188c-0.74219 0.89844-1.5234 1.5586-2.3438 1.9844-0.82422 0.41406-1.7344 0.625-2.7344 0.625-1.7617 0-3.1055-0.53906-4.0312-1.625-0.92969-1.082-1.3906-2.6602-1.3906-4.7344z"/></symbol><symbol id="t" overflow="visible"><path d="m12.422-21.281v3.2188h-2.7031c-0.6875 0-1.1719 0.125-1.4531 0.375-0.27344 0.25-0.40625 0.6875-0.40625 1.3125v1.0625h4.1875v3.5h-4.1875v11.812h-4.8906v-11.812h-2.4375v-3.5h2.4375v-1.0625c0-1.6641 0.46094-2.8984 1.3906-3.7031 0.92578-0.80078 2.3672-1.2031 4.3281-1.2031z"/></symbol><symbol id="s" overflow="visible"><path d="m16.547-12.766c0.61328-0.94531 1.3477-1.6719 2.2031-2.1719 0.85156-0.5 1.7891-0.75 2.8125-0.75 1.7578 0 3.0977 0.54688 4.0156 1.6406 0.92578 1.0859 1.3906 2.6562 1.3906 4.7188v9.3281h-4.9219v-7.9844-0.35938c0.007813-0.13281 0.015625-0.32031 0.015625-0.5625 0-1.082-0.16406-1.8633-0.48438-2.3438-0.3125-0.48828-0.82422-0.73438-1.5312-0.73438-0.92969 0-1.6484 0.38672-2.1562 1.1562-0.51172 0.76172-0.77344 1.8672-0.78125 3.3125v7.5156h-4.9219v-7.9844c0-1.6953-0.14844-2.7852-0.4375-3.2656-0.29297-0.48828-0.8125-0.73438-1.5625-0.73438-0.9375 0-1.6641 0.38672-2.1719 1.1562-0.51172 0.76172-0.76562 1.8594-0.76562 3.2969v7.5312h-4.9219v-15.312h4.9219v2.2344c0.60156-0.86328 1.2891-1.5156 2.0625-1.9531 0.78125-0.4375 1.6406-0.65625 2.5781-0.65625 1.0625 0 2 0.25781 2.8125 0.76562 0.8125 0.51172 1.4258 1.2305 1.8438 2.1562z"/></symbol><symbol id="r" overflow="visible"><path d="m2.5781-20.406h5.875l7.4219 14v-14h4.9844v20.406h-5.875l-7.4219-14v14h-4.9844z"/></symbol><symbol id="q" overflow="visible"><path d="m17.75-9.3281v9.3281h-4.9219v-7.1406c0-1.3203-0.03125-2.2344-0.09375-2.7344s-0.16797-0.86719-0.3125-1.1094c-0.1875-0.3125-0.44922-0.55469-0.78125-0.73438-0.32422-0.17578-0.69531-0.26562-1.1094-0.26562-1.0234 0-1.8242 0.39844-2.4062 1.1875-0.58594 0.78125-0.875 1.8711-0.875 3.2656v7.5312h-4.8906v-15.312h4.8906v2.2344c0.73828-0.88281 1.5195-1.5391 2.3438-1.9688 0.83203-0.42578 1.75-0.64062 2.75-0.64062 1.7695 0 3.1133 0.54688 4.0312 1.6406 0.91406 1.0859 1.375 2.6562 1.375 4.7188z"/></symbol><symbol id="p" overflow="visible"><path d="m2.5781-20.406h8.7344c2.5938 0 4.582 0.57812 5.9688 1.7344 1.3945 1.1484 2.0938 2.7891 2.0938 4.9219 0 2.1367-0.69922 3.7812-2.0938 4.9375-1.3867 1.1562-3.375 1.7344-5.9688 1.7344h-3.4844v7.0781h-5.25zm5.25 3.8125v5.7031h2.9219c1.0195 0 1.8047-0.25 2.3594-0.75 0.5625-0.5 0.84375-1.2031 0.84375-2.1094 0-0.91406-0.28125-1.6172-0.84375-2.1094-0.55469-0.48828-1.3398-0.73438-2.3594-0.73438z"/></symbol><symbol id="o" overflow="visible"><path d="m2.3594-15.312h4.8906v15.031c0 2.0508-0.49609 3.6172-1.4844 4.7031-0.98047 1.082-2.4062 1.625-4.2812 1.625h-2.4219v-3.2188h0.85938c0.92578 0 1.5625-0.21094 1.9062-0.625 0.35156-0.41797 0.53125-1.2461 0.53125-2.4844zm0-5.9688h4.8906v4h-4.8906z"/></symbol></defs><g><path d="m461.21 167.21c0.015625-29.5-11.691-57.797-32.539-78.664-20.852-20.867-49.141-32.598-78.637-32.605-29.5-0.011718-57.797 11.699-78.66 32.555-20.867 20.852-32.59 49.141-32.594 78.641-0.007812 29.5 11.711 57.793 32.566 78.656 20.859 20.859 49.148 32.578 78.648 32.578 29.477-0.027344 57.738-11.746 78.59-32.586 20.848-20.84 32.582-49.094 32.625-78.574zm-200.03 0c-0.015625-23.559 9.332-46.156 25.98-62.824 16.648-16.668 39.238-26.035 62.797-26.047 23.559-0.007812 46.156 9.3398 62.82 25.992 16.664 16.656 26.031 39.246 26.035 62.805s-9.3516 46.156-26.008 62.816c-16.656 16.66-39.25 26.02-62.809 26.02-23.535-0.03125-46.102-9.3906-62.75-26.027s-26.023-39.195-26.066-62.734z"/><path d="m382.2 220.81c5.7188-1.5391 10.371-5.6914 12.543-11.199 2.4492-5.9727 1.9727-12.742-1.2852-18.312l-7.2266-12.098c-2.5625-4.6367-6.8594-8.0742-11.949-9.5547-5.0898-1.4766-10.559-0.88281-15.211 1.6602-3.9453 2.1133-8.8555 0.78906-11.199-3.0234l-3.4727-5.8828c-2.1641-3.9492-0.80078-8.9102 3.082-11.199 4.6133-2.707 7.8984-7.2109 9.0703-12.43 1.1602-5.1328 0.33984-10.512-2.293-15.066l-7.2812-12.543c-3.168-5.6289-8.7812-9.4609-15.176-10.359-5.8242-0.80859-11.691 1.1602-15.848 5.3203-10.156 10.762-16.512 24.551-18.098 39.262-1.5859 14.711 1.6797 29.535 9.3047 42.219 12.051 21.449 34.59 34.887 59.191 35.277 5.3516 0.003906 10.68-0.69141 15.848-2.0703zm-60.199-41.609c-5.8086-9.4922-8.3516-20.625-7.2383-31.695 1.1094-11.074 5.8164-21.477 13.398-29.625 0.33984-0.37891 0.83594-0.58594 1.3438-0.55859h0.39062c1.2031 0.21875 2.25 0.95703 2.8594 2.0156l7.2227 12.543c0.53125 0.87109 0.71094 1.9141 0.50391 2.9141-0.17578 0.65234-0.57422 1.2266-1.1211 1.6211-5.7812 3.3516-10.004 8.8555-11.734 15.312-1.7344 6.457-0.83594 13.336 2.4961 19.129l3.1914 5.6016c3.3047 5.8164 8.8164 10.055 15.289 11.758 6.4648 1.7461 13.355 0.83594 19.152-2.5195 1.6367-0.59766 3.4609 0.15625 4.1992 1.7383l7.2227 12.488c0.66016 1.0547 0.78516 2.3633 0.33594 3.5273-0.19922 0.59766-0.67969 1.0586-1.2891 1.2305-10.867 2.4883-22.25 1.3438-32.406-3.2578s-18.523-12.41-23.816-22.223z"/><path d="m598.92 496.33-64.793-151.2c-2.5977-6.043-6.9141-11.188-12.406-14.801-5.4961-3.6172-11.93-5.5352-18.508-5.5273h-78.902c38.023-49.395 76.887-110.66 76.887-154.73 0-84.949-67.816-154.05-151.2-154.05s-151.2 69.105-151.2 154.05c0 44.074 38.863 105.34 76.887 154.73h-78.902c-6.582-0.003906-13.023 1.9258-18.52 5.5508-5.4961 3.6211-9.8047 8.7812-12.395 14.832l-64.793 151.2c-4.4414 10.387-3.3672 22.305 2.8555 31.73s16.766 15.094 28.059 15.086h436.02c11.309 0.015625 21.867-5.6602 28.094-15.102 6.2266-9.4414 7.2852-21.379 2.8203-31.77zm-248.92-457.91c71.008 0 128.8 59.078 128.8 131.66 0 61.602-95.984 171.98-125.38 204.4l-0.003907 0.003906c-0.86719 0.96875-2.1094 1.5234-3.4141 1.5234s-2.5469-0.55469-3.4141-1.5234c-29.402-32.426-125.39-142.86-125.39-204.4 0-72.574 57.793-131.66 128.8-131.66zm-19.992 351.12c5.1172 5.6406 12.379 8.8594 19.992 8.8594s14.875-3.2188 19.992-8.8594c9.7422-10.695 22.398-25.367 36.512-42.336h46.984l-96.32 80.25c-4.1523 3.457-10.184 3.457-14.336 0l-96.32-80.25h46.984c13.887 16.801 26.77 31.641 36.512 42.336zm-133.22-42.336h14.785l116.93 97.441c6.0391 5.0273 13.645 7.7812 21.504 7.7812s15.465-2.7539 21.504-7.7812l116.93-97.441h14.785-0.003906c2.957 0.042969 5.7734 1.25 7.8398 3.3594l-121.41 101.14c-7.25 6.0508-11.621 14.871-12.039 24.305-0.41016 9.4297 3.168 18.594 9.8555 25.258l19.488 19.543h-28l-190.4-169.46h-0.003907c2.0234-2.5 5.0234-4.0078 8.2344-4.1445zm-74.145 168.56c-2.0781-3.1445-2.4375-7.1211-0.95312-10.586l56.785-132.44 166.6 148.07h-212.8 0.003907c-3.8672 0.09375-7.5078-1.8125-9.6328-5.0391zm454.72 0c-2.0703 3.1445-5.5859 5.0391-9.3516 5.0391h-129.36l-35.391-35.336c-2.2266-2.2383-3.4062-5.3047-3.25-8.457 0.14063-3.125 1.582-6.0508 3.9766-8.0625l117.04-97.551 57.289 133.78c1.4844 3.4648 1.125 7.4414-0.95312 10.586z"/><use x="70" y="644" xlink:href="#z"/><use x="90.551" y="644" xlink:href="#d"/><use x="104.359" y="644" xlink:href="#b"/><use x="123.348" y="644" xlink:href="#f"/><use x="142.242" y="644" xlink:href="#c"/><use x="155.629" y="644" xlink:href="#b"/><use x="174.617" y="644" xlink:href="#n"/><use x="204.41" y="644" xlink:href="#m"/><use x="224.453" y="644" xlink:href="#e"/><use x="252.453" y="644" xlink:href="#l"/><use x="280.313" y="644" xlink:href="#a"/><use x="299.551" y="644" xlink:href="#k"/><use x="316.148" y="644" xlink:href="#j"/><use x="345.828" y="644" xlink:href="#y"/><use x="367.391" y="644" xlink:href="#i"/><use x="376.988" y="644" xlink:href="#x"/><use x="393.285" y="644" xlink:href="#h"/><use x="411.906" y="644" xlink:href="#i"/><use x="431.25" y="644" xlink:href="#w"/><use x="450.379" y="644" xlink:href="#h"/><use x="469" y="644" xlink:href="#a"/><use x="497.984" y="644" xlink:href="#v"/><use x="528.867" y="644" xlink:href="#f"/><use x="547.766" y="644" xlink:href="#u"/><use x="557.359" y="644" xlink:href="#g"/><use x="577.297" y="644" xlink:href="#e"/><use x="595.547" y="644" xlink:href="#a"/><use x="70" y="672" xlink:href="#t"/><use x="82.184" y="672" xlink:href="#d"/><use x="95.992" y="672" xlink:href="#a"/><use x="115.227" y="672" xlink:href="#s"/><use x="154.152" y="672" xlink:href="#c"/><use x="167.535" y="672" xlink:href="#j"/><use x="187.469" y="672" xlink:href="#b"/><use x="216.207" y="672" xlink:href="#r"/><use x="239.641" y="672" xlink:href="#a"/><use x="258.879" y="672" xlink:href="#g"/><use x="278.813" y="672" xlink:href="#q"/><use x="308.492" y="672" xlink:href="#p"/><use x="329.016" y="672" xlink:href="#d"/><use x="342.82" y="672" xlink:href="#a"/><use x="362.059" y="672" xlink:href="#o"/><use x="371.656" y="672" xlink:href="#b"/><use x="390.648" y="672" xlink:href="#k"/><use x="407.242" y="672" xlink:href="#c"/></g></svg>