<svg xmlns="http://www.w3.org/2000/svg" xmlns:xlink="http://www.w3.org/1999/xlink" width="700pt" height="700pt" version="1.1" viewBox="0 0 700 700"><defs><symbol id="o" overflow="visible"><path d="m31.266-1.875c-1.6172 0.84375-3.2969 1.4766-5.0469 1.8906-1.7422 0.42578-3.5586 0.64062-5.4531 0.64062-5.668 0-10.156-1.582-13.469-4.75-3.3125-3.1641-4.9688-7.4609-4.9688-12.891 0-5.4375 1.6562-9.7383 4.9688-12.906 3.3125-3.1641 7.8008-4.75 13.469-4.75 1.8945 0 3.7109 0.21484 5.4531 0.64062 1.75 0.42969 3.4297 1.0586 5.0469 1.8906v7.0469c-1.625-1.1133-3.2305-1.9258-4.8125-2.4375-1.5742-0.51953-3.2344-0.78125-4.9844-0.78125-3.1367 0-5.6016 1.0078-7.3906 3.0156-1.793 2-2.6875 4.7617-2.6875 8.2812 0 3.5117 0.89453 6.2734 2.6875 8.2812 1.7891 2 4.2539 3 7.3906 3 1.75 0 3.4102-0.25391 4.9844-0.76562 1.582-0.51953 3.1875-1.332 4.8125-2.4375z"/></symbol><symbol id="i" overflow="visible"><path d="m22.875-18.578c-0.71094-0.33203-1.418-0.57812-2.125-0.73438-0.71094-0.15625-1.418-0.23438-2.125-0.23438-2.1055 0-3.7266 0.67188-4.8594 2.0156-1.125 1.3438-1.6875 3.2656-1.6875 5.7656v11.766h-8.1562v-25.531h8.1562v4.2031c1.0508-1.6758 2.2539-2.8945 3.6094-3.6562 1.3633-0.76953 2.9922-1.1562 4.8906-1.1562 0.26953 0 0.56641 0.011719 0.89062 0.03125 0.32031 0.023437 0.78516 0.074219 1.3906 0.15625z"/></symbol><symbol id="d" overflow="visible"><path d="m29.391-12.828v2.3281h-19.062c0.19531 1.9062 0.88281 3.3398 2.0625 4.2969 1.1875 0.96094 2.8438 1.4375 4.9688 1.4375 1.7188 0 3.4766-0.25391 5.2812-0.76562 1.8008-0.50781 3.6484-1.2812 5.5469-2.3125v6.2969c-1.9297 0.73047-3.8594 1.2773-5.7969 1.6406-1.9297 0.375-3.8555 0.5625-5.7812 0.5625-4.6172 0-8.2031-1.1719-10.766-3.5156s-3.8438-5.6328-3.8438-9.875c0-4.1641 1.2539-7.4414 3.7656-9.8281 2.5195-2.3828 5.9844-3.5781 10.391-3.5781 4.0078 0 7.2188 1.2109 9.625 3.625 2.4062 2.418 3.6094 5.6484 3.6094 9.6875zm-8.375-2.7188c0-1.5391-0.45312-2.7852-1.3594-3.7344-0.90625-0.95703-2.0898-1.4375-3.5469-1.4375-1.5859 0-2.8711 0.44922-3.8594 1.3438-0.98047 0.88672-1.5898 2.1641-1.8281 3.8281z"/></symbol><symbol id="c" overflow="visible"><path d="m15.359-11.484c-1.6992 0-2.9805 0.29297-3.8438 0.875-0.85547 0.57422-1.2812 1.4219-1.2812 2.5469 0 1.0312 0.34375 1.8398 1.0312 2.4219 0.69531 0.58594 1.6602 0.875 2.8906 0.875 1.5312 0 2.8164-0.54688 3.8594-1.6406 1.0508-1.1016 1.5781-2.4844 1.5781-4.1406v-0.9375zm12.469-3.0781v14.562h-8.2344v-3.7812c-1.0938 1.5547-2.3242 2.6836-3.6875 3.3906-1.3672 0.69531-3.0273 1.0469-4.9844 1.0469-2.6484 0-4.7969-0.76953-6.4531-2.3125-1.6484-1.5391-2.4688-3.5391-2.4688-6 0-2.9883 1.0312-5.1797 3.0938-6.5781 2.0625-1.4062 5.2969-2.1094 9.7031-2.1094h4.7969v-0.64062c0-1.2891-0.51172-2.2344-1.5312-2.8281-1.0117-0.60156-2.5938-0.90625-4.75-0.90625-1.75 0-3.3828 0.17969-4.8906 0.53125-1.5 0.34375-2.8984 0.86719-4.1875 1.5625v-6.2188c1.75-0.42578 3.5039-0.75 5.2656-0.96875 1.7578-0.21875 3.5234-0.32812 5.2969-0.32812 4.5938 0 7.9102 0.91406 9.9531 2.7344 2.0508 1.8125 3.0781 4.7617 3.0781 8.8438z"/></symbol><symbol id="b" overflow="visible"><path d="m12.828-32.766v7.2344h8.4062v5.8438h-8.4062v10.828c0 1.1797 0.23438 1.9805 0.70312 2.4062 0.47656 0.41797 1.4141 0.625 2.8125 0.625h4.1875v5.8281h-7c-3.2188 0-5.5-0.67188-6.8438-2.0156s-2.0156-3.625-2.0156-6.8438v-10.828h-4.0625v-5.8438h4.0625v-7.2344z"/></symbol><symbol id="h" overflow="visible"><path d="m21.281-21.781v-13.672h8.2031v35.453h-8.2031v-3.6875c-1.125 1.5-2.3672 2.6016-3.7188 3.2969-1.3438 0.69531-2.9062 1.0469-4.6875 1.0469-3.1484 0-5.7305-1.25-7.75-3.75-2.0234-2.5-3.0312-5.7109-3.0312-9.6406 0-3.9375 1.0078-7.1562 3.0312-9.6562 2.0195-2.5 4.6016-3.75 7.75-3.75 1.7578 0 3.3164 0.35547 4.6719 1.0625 1.3633 0.71094 2.6094 1.8086 3.7344 3.2969zm-5.375 16.516c1.75 0 3.082-0.63281 4-1.9062 0.91406-1.2812 1.375-3.1328 1.375-5.5625 0-2.4375-0.46094-4.2891-1.375-5.5625-0.91797-1.2812-2.25-1.9219-4-1.9219-1.7305 0-3.0586 0.64062-3.9844 1.9219-0.91797 1.2734-1.375 3.125-1.375 5.5625 0 2.4297 0.45703 4.2812 1.375 5.5625 0.92578 1.2734 2.2539 1.9062 3.9844 1.9062z"/></symbol><symbol id="a" overflow="visible"><path d="m17.5-5.2656c1.75 0 3.082-0.63281 4-1.9062 0.91406-1.2812 1.375-3.1328 1.375-5.5625 0-2.4375-0.46094-4.2891-1.375-5.5625-0.91797-1.2812-2.25-1.9219-4-1.9219s-3.0938 0.64844-4.0312 1.9375c-0.92969 1.2812-1.3906 3.1328-1.3906 5.5469 0 2.418 0.46094 4.2656 1.3906 5.5469 0.9375 1.2812 2.2812 1.9219 4.0312 1.9219zm-5.4219-16.516c1.125-1.4883 2.3672-2.5859 3.7344-3.2969 1.3633-0.70703 2.9375-1.0625 4.7188-1.0625 3.1445 0 5.7266 1.25 7.75 3.75 2.0195 2.5 3.0312 5.7188 3.0312 9.6562 0 3.9297-1.0117 7.1406-3.0312 9.6406-2.0234 2.5-4.6055 3.75-7.75 3.75-1.7812 0-3.3555-0.35156-4.7188-1.0469-1.3672-0.70703-2.6094-1.8047-3.7344-3.2969v3.6875h-8.1562v-35.453h8.1562z"/></symbol><symbol id="g" overflow="visible"><path d="m0.5625-25.531h8.1719l6.8594 17.328 5.8281-17.328h8.1562l-10.734 27.953c-1.0742 2.832-2.3281 4.8164-3.7656 5.9531-1.4375 1.1328-3.3359 1.7031-5.6875 1.7031h-4.7188v-5.3594h2.5469c1.3828 0 2.3906-0.22656 3.0156-0.67188 0.63281-0.4375 1.1289-1.2266 1.4844-2.3594l0.21875-0.70312z"/></symbol><symbol id="f" overflow="visible"><path d="m13.062-27.391v20.766h3.1406c3.582 0 6.3164-0.89062 8.2031-2.6719 1.8945-1.7812 2.8438-4.3633 2.8438-7.75 0-3.375-0.94531-5.9414-2.8281-7.7031-1.875-1.7578-4.6172-2.6406-8.2188-2.6406zm-8.7812-6.6406h9.25c5.1641 0 9.0156 0.37109 11.547 1.1094 2.5312 0.74219 4.6953 1.9922 6.5 3.75 1.6016 1.5312 2.7891 3.3047 3.5625 5.3125 0.76953 2 1.1562 4.2734 1.1562 6.8125 0 2.5742-0.38672 4.8672-1.1562 6.875-0.77344 2.0117-1.9609 3.7812-3.5625 5.3125-1.8242 1.7734-4.0117 3.0273-6.5625 3.7656-2.5547 0.73047-6.3828 1.0938-11.484 1.0938h-9.25z"/></symbol><symbol id="n" overflow="visible"><path d="m3.9219-25.531h8.1562v25.531h-8.1562zm0-9.9219h8.1562v6.6406h-8.1562z"/></symbol><symbol id="m" overflow="visible"><path d="m29.578-15.547v15.547h-8.2031v-11.891c0-2.207-0.054688-3.7266-0.15625-4.5625-0.09375-0.83203-0.26172-1.4453-0.5-1.8438-0.32422-0.53125-0.76172-0.94141-1.3125-1.2344-0.54297-0.30078-1.1641-0.45312-1.8594-0.45312-1.6992 0-3.0391 0.65625-4.0156 1.9688-0.96875 1.3125-1.4531 3.1328-1.4531 5.4531v12.562h-8.1562v-25.531h8.1562v3.75c1.2266-1.4883 2.5352-2.5859 3.9219-3.2969 1.3828-0.70703 2.9102-1.0625 4.5781-1.0625 2.9453 0 5.1797 0.90625 6.7031 2.7188 1.5312 1.8047 2.2969 4.4297 2.2969 7.875z"/></symbol><symbol id="e" overflow="visible"><path d="m16.062-20.312c-1.8047 0-3.1836 0.65234-4.1406 1.9531-0.94922 1.3047-1.4219 3.1797-1.4219 5.625 0 2.4492 0.47266 4.3242 1.4219 5.625 0.95703 1.293 2.3359 1.9375 4.1406 1.9375 1.7812 0 3.1406-0.64453 4.0781-1.9375 0.94531-1.3008 1.4219-3.1758 1.4219-5.625 0-2.4453-0.47656-4.3203-1.4219-5.625-0.9375-1.3008-2.2969-1.9531-4.0781-1.9531zm0-5.8281c4.3945 0 7.8281 1.1875 10.297 3.5625 2.4688 2.3672 3.7031 5.6484 3.7031 9.8438 0 4.1875-1.2344 7.4688-3.7031 9.8438-2.4688 2.3672-5.9023 3.5469-10.297 3.5469-4.4062 0-7.8555-1.1797-10.344-3.5469-2.4805-2.375-3.7188-5.6562-3.7188-9.8438 0-4.1953 1.2383-7.4766 3.7188-9.8438 2.4883-2.375 5.9375-3.5625 10.344-3.5625z"/></symbol><symbol id="l" overflow="visible"><path d="m23.859-24.719v6.1875c-1.75-0.72656-3.4375-1.2734-5.0625-1.6406-1.625-0.36328-3.1562-0.54688-4.5938-0.54688-1.5547 0-2.7109 0.19922-3.4688 0.59375-0.75 0.38672-1.125 0.98047-1.125 1.7812 0 0.65625 0.28516 1.1641 0.85938 1.5156 0.57031 0.34375 1.5938 0.60156 3.0625 0.76562l1.4375 0.20312c4.1758 0.53125 6.9844 1.4062 8.4219 2.625 1.4453 1.2109 2.1719 3.1172 2.1719 5.7188 0 2.7188-1.0078 4.7617-3.0156 6.125-2 1.3672-4.9922 2.0469-8.9688 2.0469-1.6875 0-3.4336-0.13672-5.2344-0.40625-1.793-0.25781-3.6406-0.65625-5.5469-1.1875v-6.2031c1.625 0.79297 3.2891 1.3867 5 1.7812 1.7188 0.39844 3.457 0.59375 5.2188 0.59375 1.5938 0 2.7891-0.21875 3.5938-0.65625 0.8125-0.4375 1.2188-1.0938 1.2188-1.9688 0-0.72656-0.28125-1.2695-0.84375-1.625-0.55469-0.35156-1.6562-0.62891-3.3125-0.82812l-1.4375-0.1875c-3.625-0.44531-6.168-1.2852-7.625-2.5156-1.4609-1.2383-2.1875-3.1094-2.1875-5.6094 0-2.707 0.92188-4.7109 2.7656-6.0156 1.8516-1.3125 4.6953-1.9688 8.5312-1.9688 1.5 0 3.0781 0.11719 4.7344 0.34375 1.6562 0.23047 3.457 0.58984 5.4062 1.0781z"/></symbol><symbol id="k" overflow="visible"><path d="m20.719-35.453v5.3438h-4.5156c-1.1562 0-1.9648 0.21484-2.4219 0.64062-0.44922 0.41797-0.67188 1.1406-0.67188 2.1719v1.7656h6.9688v5.8438h-6.9688v19.688h-8.1719v-19.688h-4.0469v-5.8438h4.0469v-1.7656c0-2.7812 0.77344-4.832 2.3281-6.1562 1.5508-1.332 3.9531-2 7.2031-2z"/></symbol><symbol id="j" overflow="visible"><path d="m4.2812-34.031h8.7812v27.406h15.406v6.625h-24.188z"/></symbol></defs><g><path d="m413.37 84.613 22.305 47.105c5.4414 11.492 16.223 19.328 28.836 20.961l51.582 6.5-9.5938 51.254c-2.3359 12.477 1.7773 25.129 11 33.852l37.887 35.605-37.887 35.832c-9.2227 8.7188-13.332 21.375-11 33.852l9.7266 51.07-51.715 6.6836c-12.613 1.6289-23.391 9.4648-28.836 20.961l-22.09 47.035-45.746-25.008c-5.4531-2.9883-11.621-4.5625-17.836-4.5625s-12.379 1.5742-17.832 4.5547l-45.535 25.078-22.309-47.105c-5.4414-11.492-16.223-19.328-28.836-20.957l-51.582-6.5 9.5938-51.254c2.3359-12.477-1.7773-25.133-10.996-33.852l-37.891-35.605 37.891-35.836c9.2227-8.7227 13.332-21.375 10.996-33.852l-9.7266-51.07 51.715-6.6836c12.613-1.6289 23.391-9.4648 28.836-20.961l22.234-46.953 45.602 24.93c5.4531 2.9805 11.617 4.5547 17.832 4.5547 6.2148 0 12.379-1.5742 17.832-4.5547l45.543-25.074m-126.86-18.586c-6.9102 0-13.57 3.8828-16.75 10.594l-22.305 47.105c-2.6992 5.6953-8.1055 9.6289-14.355 10.434l-51.715 6.6836c-10.547 1.3633-17.777 11.312-15.824 21.762l9.5938 51.254c1.1562 6.1836-0.90625 12.531-5.4766 16.855l-37.891 35.832c-7.7227 7.3047-7.7227 19.594 0 26.898l37.891 35.832c4.5703 4.3242 6.6328 10.672 5.4766 16.855l-9.5938 51.254c-1.957 10.453 5.2773 20.398 15.82 21.762l51.715 6.6836c6.25 0.80859 11.66 4.7383 14.355 10.438l22.309 47.105c3.1797 6.7109 9.8398 10.594 16.75 10.594 2.9922 0 6.0352-0.73047 8.8594-2.2734l45.75-25.008c2.7656-1.5117 5.8242-2.2656 8.8789-2.2656s6.1133 0.75781 8.8789 2.2695l45.746 25.008c2.8242 1.543 5.8672 2.2734 8.8594 2.2734 6.9102 0 13.57-3.8828 16.75-10.594l22.305-47.105c2.6992-5.6953 8.1055-9.6289 14.355-10.434l51.715-6.6836c10.547-1.3633 17.777-11.312 15.82-21.762l-9.5938-51.254c-1.1562-6.1836 0.90625-12.531 5.4766-16.855l37.891-35.832c7.7227-7.3047 7.7227-19.594 0-26.898l-37.887-35.832c-4.5703-4.3242-6.6328-10.672-5.4766-16.855l9.5938-51.254c1.957-10.453-5.2734-20.398-15.82-21.762l-51.715-6.6836c-6.25-0.80859-11.66-4.7383-14.355-10.438l-22.305-47.109c-3.1797-6.7109-9.8398-10.594-16.75-10.594-2.9961 0-6.0352 0.73047-8.8594 2.2734l-45.75 25.008c-2.7656 1.5117-5.8203 2.2695-8.8789 2.2695-3.0547 0-6.1133-0.75781-8.8789-2.2695l-45.75-25.008c-2.8242-1.543-5.8633-2.2734-8.8594-2.2734z"/><path d="m287.41 239.91h-10.172v62.945l-42.109-62.945h-10.883v80.172h10.172v-63l42.109 63h10.883z"/><path d="m363.43 239.91h-57.969v80.172h59.828v-9.4609h-49.219v-27.289h44.352v-9.4062h-44.352v-24.555h47.359z"/><path d="m475.75 239.91h-10.664l-12.578 51.516c-1.6406 6.5625-2.9727 12.379-3.9922 17.445-1.2773-8.8594-3.3555-18.32-6.2344-28.383l-11.484-40.578h-12.797l-15.258 54.141c-0.36328 1.3125-1.5664 6.2539-3.6094 14.82-0.94922-5.4336-2.0781-10.902-3.3906-16.406l-12.195-52.555h-10.883l21.273 80.172h10.828l17.008-61.086c0.73047-2.5898 1.5117-5.7227 2.3516-9.4062 0.25391 1.168 1.0938 4.3008 2.5156 9.4062l16.898 61.086h10.227z"/><use x="70" y="700" xlink:href="#o"/><use x="104.25" y="700" xlink:href="#i"/><use x="127.262" y="700" xlink:href="#d"/><use x="158.914" y="700" xlink:href="#c"/><use x="190.402" y="700" xlink:href="#b"/><use x="212.711" y="700" xlink:href="#d"/><use x="244.363" y="700" xlink:href="#h"/><use x="294.016" y="700" xlink:href="#a"/><use x="327.418" y="700" xlink:href="#g"/><use x="374.086" y="700" xlink:href="#f"/><use x="412.82" y="700" xlink:href="#n"/><use x="428.82" y="700" xlink:href="#m"/><use x="462.039" y="700" xlink:href="#e"/><use x="494.102" y="700" xlink:href="#l"/><use x="521.879" y="700" xlink:href="#e"/><use x="553.938" y="700" xlink:href="#k"/><use x="574.242" y="700" xlink:href="#b"/><use x="596.551" y="700" xlink:href="#j"/><use x="626.285" y="700" xlink:href="#c"/><use x="657.777" y="700" xlink:href="#a"/></g></svg>