<svg xmlns="http://www.w3.org/2000/svg" xmlns:xlink="http://www.w3.org/1999/xlink" width="700pt" height="700pt" version="1.1" viewBox="0 0 700 700"><defs><symbol id="j" overflow="visible"><path d="m18.766-1.125c-0.96875 0.5-1.9805 0.875-3.0312 1.125-1.043 0.25781-2.1367 0.39062-3.2812 0.39062-3.3984 0-6.0898-0.94531-8.0781-2.8438-1.9922-1.9062-2.9844-4.4844-2.9844-7.7344 0-3.2578 0.99219-5.8359 2.9844-7.7344 1.9883-1.9062 4.6797-2.8594 8.0781-2.8594 1.1445 0 2.2383 0.13281 3.2812 0.39062 1.0508 0.25 2.0625 0.625 3.0312 1.125v4.2188c-0.98047-0.65625-1.9453-1.1406-2.8906-1.4531-0.94922-0.3125-1.9492-0.46875-3-0.46875-1.875 0-3.3516 0.60547-4.4219 1.8125-1.0742 1.1992-1.6094 2.8555-1.6094 4.9688 0 2.1055 0.53516 3.7617 1.6094 4.9688 1.0703 1.1992 2.5469 1.7969 4.4219 1.7969 1.0508 0 2.0508-0.14844 3-0.45312 0.94531-0.3125 1.9102-0.80078 2.8906-1.4688z"/></symbol><symbol id="c" overflow="visible"><path d="m13.734-11.141c-0.4375-0.19531-0.87109-0.34375-1.2969-0.4375-0.41797-0.10156-0.83984-0.15625-1.2656-0.15625-1.2617 0-2.2305 0.40625-2.9062 1.2188-0.67969 0.80469-1.0156 1.9531-1.0156 3.4531v7.0625h-4.8906v-15.312h4.8906v2.5156c0.625-1 1.3438-1.7266 2.1562-2.1875 0.82031-0.46875 1.8008-0.70312 2.9375-0.70312 0.16406 0 0.34375 0.011719 0.53125 0.03125 0.19531 0.011719 0.47656 0.039062 0.84375 0.078125z"/></symbol><symbol id="b" overflow="visible"><path d="m17.641-7.7031v1.4062h-11.453c0.125 1.1484 0.53906 2.0078 1.25 2.5781 0.70703 0.57422 1.7031 0.85938 2.9844 0.85938 1.0312 0 2.082-0.14844 3.1562-0.45312 1.082-0.3125 2.1914-0.77344 3.3281-1.3906v3.7656c-1.1562 0.4375-2.3125 0.76562-3.4688 0.98438-1.1562 0.22656-2.3125 0.34375-3.4688 0.34375-2.7734 0-4.9297-0.70312-6.4688-2.1094-1.5312-1.4062-2.2969-3.3789-2.2969-5.9219 0-2.5 0.75391-4.4609 2.2656-5.8906 1.5078-1.4375 3.582-2.1562 6.2188-2.1562 2.4062 0 4.332 0.73047 5.7812 2.1875 1.4453 1.4492 2.1719 3.3828 2.1719 5.7969zm-5.0312-1.625c0-0.92578-0.27344-1.6719-0.8125-2.2344-0.54297-0.57031-1.25-0.85938-2.125-0.85938-0.94922 0-1.7188 0.26562-2.3125 0.79688s-0.96484 1.2969-1.1094 2.2969z"/></symbol><symbol id="a" overflow="visible"><path d="m9.2188-6.8906c-1.0234 0-1.793 0.17188-2.3125 0.51562-0.51172 0.34375-0.76562 0.85547-0.76562 1.5312 0 0.625 0.20703 1.1172 0.625 1.4688 0.41406 0.34375 0.98828 0.51562 1.7188 0.51562 0.92578 0 1.7031-0.32812 2.3281-0.98438 0.63281-0.66406 0.95312-1.4922 0.95312-2.4844v-0.5625zm7.4688-1.8438v8.7344h-4.9219v-2.2656c-0.65625 0.92969-1.3984 1.6055-2.2188 2.0312-0.82422 0.41406-1.8242 0.625-3 0.625-1.5859 0-2.8711-0.45703-3.8594-1.375-0.99219-0.92578-1.4844-2.1289-1.4844-3.6094 0-1.7891 0.61328-3.1016 1.8438-3.9375 1.2383-0.84375 3.1797-1.2656 5.8281-1.2656h2.8906v-0.39062c0-0.76953-0.30859-1.332-0.92188-1.6875-0.61719-0.36328-1.5703-0.54688-2.8594-0.54688-1.0547 0-2.0312 0.10547-2.9375 0.3125-0.89844 0.21094-1.7305 0.52344-2.5 0.9375v-3.7344c1.0391-0.25 2.0859-0.44141 3.1406-0.57812 1.0625-0.13281 2.125-0.20312 3.1875-0.20312 2.7578 0 4.75 0.54688 5.9688 1.6406 1.2266 1.0859 1.8438 2.8555 1.8438 5.3125z"/></symbol><symbol id="d" overflow="visible"><path d="m7.7031-19.656v4.3438h5.0469v3.5h-5.0469v6.5c0 0.71094 0.14062 1.1875 0.42188 1.4375s0.83594 0.375 1.6719 0.375h2.5156v3.5h-4.1875c-1.9375 0-3.3125-0.39844-4.125-1.2031-0.80469-0.8125-1.2031-2.1797-1.2031-4.1094v-6.5h-2.4219v-3.5h2.4219v-4.3438z"/></symbol><symbol id="l" overflow="visible"><path d="m12.766-13.078v-8.2031h4.9219v21.281h-4.9219v-2.2188c-0.66797 0.90625-1.4062 1.5703-2.2188 1.9844s-1.7578 0.625-2.8281 0.625c-1.8867 0-3.4336-0.75-4.6406-2.25-1.2109-1.5-1.8125-3.4258-1.8125-5.7812 0-2.3633 0.60156-4.2969 1.8125-5.7969 1.207-1.5 2.7539-2.25 4.6406-2.25 1.0625 0 2 0.21484 2.8125 0.64062 0.82031 0.42969 1.5664 1.0859 2.2344 1.9688zm-3.2188 9.9219c1.0391 0 1.8359-0.37891 2.3906-1.1406 0.55078-0.76953 0.82812-1.8828 0.82812-3.3438 0-1.457-0.27734-2.5664-0.82812-3.3281-0.55469-0.76953-1.3516-1.1562-2.3906-1.1562-1.043 0-1.8398 0.38672-2.3906 1.1562-0.55469 0.76172-0.82812 1.8711-0.82812 3.3281 0 1.4609 0.27344 2.5742 0.82812 3.3438 0.55078 0.76172 1.3477 1.1406 2.3906 1.1406z"/></symbol><symbol id="k" overflow="visible"><path d="m10.5-3.1562c1.0508 0 1.8516-0.37891 2.4062-1.1406 0.55078-0.76953 0.82812-1.8828 0.82812-3.3438 0-1.457-0.27734-2.5664-0.82812-3.3281-0.55469-0.76953-1.3555-1.1562-2.4062-1.1562-1.0547 0-1.8594 0.38672-2.4219 1.1562-0.55469 0.77344-0.82812 1.8828-0.82812 3.3281 0 1.4492 0.27344 2.5586 0.82812 3.3281 0.5625 0.77344 1.3672 1.1562 2.4219 1.1562zm-3.25-9.9219c0.67578-0.88281 1.4219-1.5391 2.2344-1.9688 0.82031-0.42578 1.7656-0.64062 2.8281-0.64062 1.8945 0 3.4453 0.75 4.6562 2.25 1.207 1.5 1.8125 3.4336 1.8125 5.7969 0 2.3555-0.60547 4.2812-1.8125 5.7812-1.2109 1.5-2.7617 2.25-4.6562 2.25-1.0625 0-2.0078-0.21094-2.8281-0.625-0.8125-0.42578-1.5586-1.0859-2.2344-1.9844v2.2188h-4.8906v-21.281h4.8906z"/></symbol><symbol id="h" overflow="visible"><path d="m0.34375-15.312h4.8906l4.125 10.391 3.5-10.391h4.8906l-6.4375 16.766c-0.64844 1.6953-1.4023 2.8828-2.2656 3.5625-0.86719 0.6875-2 1.0312-3.4062 1.0312h-2.8438v-3.2188h1.5312c0.83203 0 1.4375-0.13672 1.8125-0.40625 0.38281-0.26172 0.67969-0.73047 0.89062-1.4062l0.14062-0.42188z"/></symbol><symbol id="g" overflow="visible"><path d="m17.75-9.3281v9.3281h-4.9219v-7.1094c0-1.3438-0.03125-2.2656-0.09375-2.7656s-0.16797-0.86719-0.3125-1.1094c-0.1875-0.3125-0.44922-0.55469-0.78125-0.73438-0.32422-0.17578-0.69531-0.26562-1.1094-0.26562-1.0234 0-1.8242 0.39844-2.4062 1.1875-0.58594 0.78125-0.875 1.8711-0.875 3.2656v7.5312h-4.8906v-21.281h4.8906v8.2031c0.73828-0.88281 1.5195-1.5391 2.3438-1.9688 0.83203-0.42578 1.75-0.64062 2.75-0.64062 1.7695 0 3.1133 0.54688 4.0312 1.6406 0.91406 1.0859 1.375 2.6562 1.375 4.7188z"/></symbol><symbol id="u" overflow="visible"><path d="m2.5781-20.406h5.25v7.4375l7.5938-7.4375h6.1094l-9.8281 9.6562 10.844 10.75h-6.5938l-8.125-8.0469v8.0469h-5.25z"/></symbol><symbol id="i" overflow="visible"><path d="m2.1875-5.9688v-9.3438h4.9219v1.5312c0 0.83594-0.007813 1.875-0.015625 3.125-0.011719 1.25-0.015625 2.0859-0.015625 2.5 0 1.2422 0.03125 2.1328 0.09375 2.6719 0.070313 0.54297 0.17969 0.93359 0.32812 1.1719 0.20703 0.32422 0.47266 0.57422 0.79688 0.75 0.32031 0.16797 0.69141 0.25 1.1094 0.25 1.0195 0 1.8203-0.39062 2.4062-1.1719 0.58203-0.78125 0.875-1.8672 0.875-3.2656v-7.5625h4.8906v15.312h-4.8906v-2.2188c-0.74219 0.89844-1.5234 1.5586-2.3438 1.9844-0.82422 0.41406-1.7344 0.625-2.7344 0.625-1.7617 0-3.1055-0.53906-4.0312-1.625-0.92969-1.082-1.3906-2.6602-1.3906-4.7344z"/></symbol><symbol id="f" overflow="visible"><path d="m17.75-9.3281v9.3281h-4.9219v-7.1406c0-1.3203-0.03125-2.2344-0.09375-2.7344s-0.16797-0.86719-0.3125-1.1094c-0.1875-0.3125-0.44922-0.55469-0.78125-0.73438-0.32422-0.17578-0.69531-0.26562-1.1094-0.26562-1.0234 0-1.8242 0.39844-2.4062 1.1875-0.58594 0.78125-0.875 1.8711-0.875 3.2656v7.5312h-4.8906v-15.312h4.8906v2.2344c0.73828-0.88281 1.5195-1.5391 2.3438-1.9688 0.83203-0.42578 1.75-0.64062 2.75-0.64062 1.7695 0 3.1133 0.54688 4.0312 1.6406 0.91406 1.0859 1.375 2.6562 1.375 4.7188z"/></symbol><symbol id="t" overflow="visible"><path d="m2.3594-15.312h4.8906v15.312h-4.8906zm0-5.9688h4.8906v4h-4.8906z"/></symbol><symbol id="s" overflow="visible"><path d="m0.98438-15.312h4.7656l2.5625 10.547 2.5781-10.547h4.0938l2.5781 10.438 2.5781-10.438h4.75l-4.0312 15.312h-5.3438l-2.5781-10.531-2.5781 10.531h-5.3438z"/></symbol><symbol id="r" overflow="visible"><path d="m12.422-21.281v3.2188h-2.7031c-0.6875 0-1.1719 0.125-1.4531 0.375-0.27344 0.25-0.40625 0.6875-0.40625 1.3125v1.0625h4.1875v3.5h-4.1875v11.812h-4.8906v-11.812h-2.4375v-3.5h2.4375v-1.0625c0-1.6641 0.46094-2.8984 1.3906-3.7031 0.92578-0.80078 2.3672-1.2031 4.3281-1.2031z"/></symbol><symbol id="e" overflow="visible"><path d="m9.6406-12.188c-1.0859 0-1.9141 0.39062-2.4844 1.1719-0.57422 0.78125-0.85938 1.9062-0.85938 3.375s0.28516 2.5938 0.85938 3.375c0.57031 0.77344 1.3984 1.1562 2.4844 1.1562 1.0625 0 1.875-0.38281 2.4375-1.1562 0.57031-0.78125 0.85938-1.9062 0.85938-3.375s-0.28906-2.5938-0.85938-3.375c-0.5625-0.78125-1.375-1.1719-2.4375-1.1719zm0-3.5c2.6328 0 4.6914 0.71484 6.1719 2.1406 1.4766 1.418 2.2188 3.3867 2.2188 5.9062 0 2.5117-0.74219 4.4805-2.2188 5.9062-1.4805 1.418-3.5391 2.125-6.1719 2.125-2.6484 0-4.7148-0.70703-6.2031-2.125-1.4922-1.4258-2.2344-3.3945-2.2344-5.9062 0-2.5195 0.74219-4.4883 2.2344-5.9062 1.4883-1.4258 3.5547-2.1406 6.2031-2.1406z"/></symbol><symbol id="q" overflow="visible"><path d="m16.547-12.766c0.61328-0.94531 1.3477-1.6719 2.2031-2.1719 0.85156-0.5 1.7891-0.75 2.8125-0.75 1.7578 0 3.0977 0.54688 4.0156 1.6406 0.92578 1.0859 1.3906 2.6562 1.3906 4.7188v9.3281h-4.9219v-7.9844-0.35938c0.007813-0.13281 0.015625-0.32031 0.015625-0.5625 0-1.082-0.16406-1.8633-0.48438-2.3438-0.3125-0.48828-0.82422-0.73438-1.5312-0.73438-0.92969 0-1.6484 0.38672-2.1562 1.1562-0.51172 0.76172-0.77344 1.8672-0.78125 3.3125v7.5156h-4.9219v-7.9844c0-1.6953-0.14844-2.7852-0.4375-3.2656-0.29297-0.48828-0.8125-0.73438-1.5625-0.73438-0.9375 0-1.6641 0.38672-2.1719 1.1562-0.51172 0.76172-0.76562 1.8594-0.76562 3.2969v7.5312h-4.9219v-15.312h4.9219v2.2344c0.60156-0.86328 1.2891-1.5156 2.0625-1.9531 0.78125-0.4375 1.6406-0.65625 2.5781-0.65625 1.0625 0 2 0.25781 2.8125 0.76562 0.8125 0.51172 1.4258 1.2305 1.8438 2.1562z"/></symbol><symbol id="p" overflow="visible"><path d="m2.5781-20.406h5.875l7.4219 14v-14h4.9844v20.406h-5.875l-7.4219-14v14h-4.9844z"/></symbol><symbol id="o" overflow="visible"><path d="m2.5781-20.406h8.7344c2.5938 0 4.582 0.57812 5.9688 1.7344 1.3945 1.1484 2.0938 2.7891 2.0938 4.9219 0 2.1367-0.69922 3.7812-2.0938 4.9375-1.3867 1.1562-3.375 1.7344-5.9688 1.7344h-3.4844v7.0781h-5.25zm5.25 3.8125v5.7031h2.9219c1.0195 0 1.8047-0.25 2.3594-0.75 0.5625-0.5 0.84375-1.2031 0.84375-2.1094 0-0.91406-0.28125-1.6172-0.84375-2.1094-0.55469-0.48828-1.3398-0.73438-2.3594-0.73438z"/></symbol><symbol id="n" overflow="visible"><path d="m2.3594-15.312h4.8906v15.031c0 2.0508-0.49609 3.6172-1.4844 4.7031-0.98047 1.082-2.4062 1.625-4.2812 1.625h-2.4219v-3.2188h0.85938c0.92578 0 1.5625-0.21094 1.9062-0.625 0.35156-0.41797 0.53125-1.2461 0.53125-2.4844zm0-5.9688h4.8906v4h-4.8906z"/></symbol><symbol id="m" overflow="visible"><path d="m14.719-14.828v3.9844c-0.65625-0.45703-1.3242-0.79688-2-1.0156-0.66797-0.21875-1.3594-0.32812-2.0781-0.32812-1.3672 0-2.4336 0.40234-3.2031 1.2031-0.76172 0.79297-1.1406 1.9062-1.1406 3.3438 0 1.4297 0.37891 2.543 1.1406 3.3438 0.76953 0.79297 1.8359 1.1875 3.2031 1.1875 0.75781 0 1.4844-0.10938 2.1719-0.32812 0.6875-0.22656 1.3203-0.56641 1.9062-1.0156v4c-0.76172 0.28125-1.5391 0.48828-2.3281 0.625-0.78125 0.14453-1.5742 0.21875-2.375 0.21875-2.7617 0-4.9219-0.70703-6.4844-2.125-1.5547-1.4141-2.3281-3.3828-2.3281-5.9062 0-2.5312 0.77344-4.5039 2.3281-5.9219 1.5625-1.4141 3.7227-2.125 6.4844-2.125 0.80078 0 1.5938 0.074219 2.375 0.21875 0.78125 0.13672 1.5547 0.35156 2.3281 0.64062z"/></symbol></defs><g><path d="m596.5 488.43h-19.23v-208.19h19.207c3.0312 0 5.4766-2.4531 5.4766-5.4766v-22.266c0-0.027344-0.015625-0.050781-0.015625-0.074218-0.011719-0.66797-0.14453-1.3164-0.38672-1.9336-0.074219-0.18359-0.19141-0.33594-0.28516-0.50781-0.20703-0.39844-0.44141-0.77344-0.75-1.1094-0.16797-0.19141-0.35938-0.33984-0.54688-0.50781-0.16797-0.14062-0.29297-0.32031-0.48047-0.44141l-37.895-24.961v-36.047h11.945c15.668 0 28.414-12.746 28.414-28.414l-0.003907-21.418c0-0.011719-0.003906-0.023438-0.003906-0.039063-0.003906-0.62891-0.15234-1.2422-0.37109-1.8438-0.054687-0.15625-0.11328-0.30078-0.17969-0.44922-0.0625-0.12891-0.085937-0.26172-0.15625-0.38672l-58.863-103.41c-0.97266-1.707-2.793-2.7656-4.7617-2.7656h-375.23c-1.9727 0-3.7852 1.0586-4.7617 2.7656l-58.855 103.42c-0.066406 0.11719-0.09375 0.25391-0.15234 0.375-0.074219 0.15234-0.12891 0.29688-0.18359 0.45312-0.21875 0.59766-0.36328 1.2109-0.37109 1.8359 0 0.015625-0.003906 0.027343-0.003906 0.039062v21.422c0 15.668 12.746 28.414 28.414 28.414h11.938v36.047l-37.891 24.965c-0.19141 0.125-0.32031 0.30078-0.48828 0.44922-0.19141 0.16406-0.37109 0.30859-0.53906 0.49219-0.30859 0.33984-0.54297 0.71875-0.75781 1.1211-0.089844 0.17187-0.20703 0.32031-0.28125 0.50391-0.24219 0.60938-0.37891 1.2617-0.38672 1.9258 0 0.027344-0.015625 0.050781-0.015625 0.078125v22.266c0 3.0312 2.4531 5.4766 5.4766 5.4766h19.207l0.011719 208.19h-19.238c-3.0234 0-5.4766 2.4531-5.4766 5.4766v32.426c0 3.0312 2.4531 5.4766 5.4766 5.4766h493c3.0312 0 5.4766-2.4531 5.4766-5.4766v-32.426c0-3.0312-2.4531-5.4766-5.4805-5.4766zm-30.184 0h-20.383l-0.003907-208.19h20.383zm-152.9 0v-154.26c0-3.0312-2.4531-5.4766-5.4766-5.4766h-115.88c-3.0234 0-5.4766 2.4531-5.4766 5.4766v154.26h-121.55v-208.19h369.94v208.19zm-115.88 0v-148.78h46.984v148.78zm57.938-148.78h46.984v148.78h-46.984zm-206.12-153.75c6.4414-1.6875 11.977-5.5273 15.785-10.77 5.168 7.1133 13.496 11.789 22.938 11.789h15.742c9.4414 0 17.77-4.6797 22.938-11.789 5.168 7.1133 13.496 11.789 22.938 11.789h15.742c9.4414 0 17.77-4.6797 22.938-11.789 5.168 7.1133 13.496 11.789 22.938 11.789h15.742c9.4414 0 17.77-4.6797 22.938-11.789 5.168 7.1133 13.496 11.789 22.938 11.789h15.742c9.4414 0 17.77-4.6797 22.938-11.789 5.168 7.1133 13.496 11.789 22.938 11.789h15.742c9.4414 0 17.77-4.6797 22.938-11.789 5.168 7.1133 13.496 11.789 22.938 11.789h15.742c9.4414 0 17.77-4.6797 22.938-11.789 3.8086 5.2344 9.3477 9.0781 15.781 10.762v34.547h-401.27zm85.809-146.75-13.156 92.461h-50.094l19.73-92.461zm273.18 0 19.738 92.461h-50.098l-13.16-92.461zm-163.83 119.36c0 9.625-7.8281 17.461-17.461 17.461h-15.742c-9.625 0-17.461-7.8281-17.461-17.461v-15.941h50.664zm-61.621 0c0 9.625-7.8281 17.461-17.461 17.461h-15.742c-9.625 0-17.461-7.8281-17.461-17.461v-15.941h50.664zm72.574-15.941h50.664v15.941c0 9.625-7.8281 17.461-17.461 17.461h-15.742c-9.625 0-17.461-7.8281-17.461-17.461zm61.621 0h50.664v15.941c0 9.625-7.8281 17.461-17.461 17.461h-15.742c-9.625 0-17.461-7.8281-17.461-17.461zm61.617 0h50.664v15.941c0 9.625-7.8281 17.461-17.461 17.461h-15.742c-9.625 0-17.461-7.8281-17.461-17.461zm-11.793-10.957h-50.203l-6.582-92.465h43.629zm-61.18 0h-50.262v-92.465h43.68zm-61.219 0h-50.262l6.582-92.465h43.68zm-61.246 0h-50.203l13.156-92.465h43.625zm-112.66 10.957h50.664v15.941c0 9.625-7.8281 17.461-17.461 17.461h-15.742c-9.625 0-17.461-7.8281-17.461-17.461zm420.38 15.941c0 9.625-7.8281 17.461-17.461 17.461h-15.742c-9.625 0-17.461-7.8281-17.461-17.461v-15.941h50.664zm-3.9414-26.898h-47.77l-19.734-92.465h14.879zm-421.48-92.465h14.875l-19.734 92.461h-47.77zm-56.566 119.36v-15.941h50.664v15.941c0 9.625-7.8281 17.461-17.461 17.461h-15.742c-9.6328 0-17.461-7.8359-17.461-17.461zm36.52 72.891h408.95l23.727 15.629h-456.41zm-36.52 26.582h481.99v11.305h-50.551l-380.89 0.003906h-50.543l-0.003907-11.309zm24.684 22.266h20.383l0.003907 208.19h-20.383zm457.33 240.61h-482.04v-21.465h482.04z"/><path d="m264.93 328.7h-79.551c-3.0234 0-5.4766 2.4531-5.4766 5.4766v110.9c0 3.0312 2.4531 5.4766 5.4766 5.4766h79.547c3.0234 0 5.4766-2.4531 5.4766-5.4766l0.003906-110.9c0.003906-3.0312-2.4492-5.4766-5.4766-5.4766zm-5.4766 110.9h-68.594v-99.949h68.594z"/><path d="m513.97 328.7h-79.547c-3.0312 0-5.4766 2.4531-5.4766 5.4766v110.9c0 3.0312 2.4531 5.4766 5.4766 5.4766h79.547c3.0312 0 5.4766-2.4531 5.4766-5.4766v-110.9c0-3.0312-2.4492-5.4766-5.4766-5.4766zm-5.4766 110.9h-68.594v-99.949h68.594z"/><use x="70" y="644" xlink:href="#j"/><use x="90.551" y="644" xlink:href="#c"/><use x="104.359" y="644" xlink:href="#b"/><use x="123.348" y="644" xlink:href="#a"/><use x="142.242" y="644" xlink:href="#d"/><use x="155.629" y="644" xlink:href="#b"/><use x="174.617" y="644" xlink:href="#l"/><use x="204.41" y="644" xlink:href="#k"/><use x="224.453" y="644" xlink:href="#h"/><use x="252.453" y="644" xlink:href="#j"/><use x="273" y="644" xlink:href="#a"/><use x="291.895" y="644" xlink:href="#g"/><use x="311.828" y="644" xlink:href="#h"/><use x="330.078" y="644" xlink:href="#a"/><use x="358.723" y="644" xlink:href="#u"/><use x="380.422" y="644" xlink:href="#i"/><use x="400.352" y="644" xlink:href="#c"/><use x="414.164" y="644" xlink:href="#f"/><use x="434.094" y="644" xlink:href="#t"/><use x="443.695" y="644" xlink:href="#a"/><use x="462.586" y="644" xlink:href="#s"/><use x="488.453" y="644" xlink:href="#a"/><use x="507.352" y="644" xlink:href="#f"/><use x="70" y="672" xlink:href="#r"/><use x="82.184" y="672" xlink:href="#c"/><use x="95.992" y="672" xlink:href="#e"/><use x="115.227" y="672" xlink:href="#q"/><use x="154.152" y="672" xlink:href="#d"/><use x="167.535" y="672" xlink:href="#g"/><use x="187.469" y="672" xlink:href="#b"/><use x="216.207" y="672" xlink:href="#p"/><use x="239.641" y="672" xlink:href="#e"/><use x="258.879" y="672" xlink:href="#i"/><use x="278.813" y="672" xlink:href="#f"/><use x="308.492" y="672" xlink:href="#o"/><use x="329.016" y="672" xlink:href="#c"/><use x="342.82" y="672" xlink:href="#e"/><use x="362.059" y="672" xlink:href="#n"/><use x="371.656" y="672" xlink:href="#b"/><use x="390.648" y="672" xlink:href="#m"/><use x="407.242" y="672" xlink:href="#d"/></g></svg>